<?xml version="1.0" encoding="UTF-8" standalone="no"?>
<svg
   height="128"
   width="128"
   version="1.1"
   id="svg42"
   sodipodi:docname="logo.svg"
   inkscape:version="1.4 (e7c3feb100, 2024-10-09)"
   xml:space="preserve"
   inkscape:export-filename="logo.png"
   inkscape:export-xdpi="96"
   inkscape:export-ydpi="96"
   xmlns:inkscape="http://www.inkscape.org/namespaces/inkscape"
   xmlns:sodipodi="http://sodipodi.sourceforge.net/DTD/sodipodi-0.dtd"
   xmlns:xlink="http://www.w3.org/1999/xlink"
   xmlns="http://www.w3.org/2000/svg"
   xmlns:svg="http://www.w3.org/2000/svg"><defs
     id="defs42"><linearGradient
       id="linearGradient48"
       gradientUnits="userSpaceOnUse"><stop
         offset="0.2090839"
         stop-color="#1c71d8"
         id="stop47"
         style="stop-color:#1c71d8;stop-opacity:0.50146079;" /><stop
         offset="0.81481391"
         stop-color="#c061cb"
         stop-opacity="0"
         id="stop48" /></linearGradient><linearGradient
       id="linearGradient44"
       gradientUnits="userSpaceOnUse"><stop
         offset="0"
         stop-color="#c061cb"
         id="stop43"
         style="stop-color:#e943e2;stop-opacity:1;" /><stop
         offset="0.77883035"
         stop-color="#ed333b"
         id="stop44"
         style="stop-color:#ffff49;stop-opacity:1;" /></linearGradient><linearGradient
       id="a-3"
       gradientUnits="userSpaceOnUse"
       x1="34"
       x2="96"
       y1="122"
       y2="124"
       gradientTransform="translate(8.5215874,1.4281685)"><stop
         offset="0"
         stop-color="#4d4d4d"
         id="stop1-6" /><stop
         offset="0.361642"
         stop-color="#a9a9a9"
         id="stop2-7" /><stop
         offset="1"
         stop-color="#202020"
         id="stop3-5" /></linearGradient><linearGradient
       id="b-3"
       gradientUnits="userSpaceOnUse"
       x1="30"
       x2="99.33342"
       y1="108"
       y2="108"
       gradientTransform="matrix(0.97316082,0,0,1,10.266134,-1.9077925)"><stop
         offset="0"
         stop-color="#3d3846"
         id="stop4-5" /><stop
         offset="0.302763"
         stop-color="#9a9996"
         id="stop5-6" /><stop
         offset="0.903597"
         stop-color="#342f3e"
         id="stop6-2" /><stop
         offset="1"
         stop-color="#77767b"
         id="stop7-9" /></linearGradient><linearGradient
       xlink:href="#a-36"
       id="W"
       x1="28"
       x2="40"
       y1="220"
       y2="220"
       gradientTransform="translate(186,-254)"
       gradientUnits="userSpaceOnUse" /><linearGradient
       id="a-36"><stop
         offset="0"
         style="stop-color:#62a0ea;stop-opacity:1"
         id="stop1-7" /><stop
         offset="1"
         style="stop-color:#3584e4;stop-opacity:1"
         id="stop2-5" /></linearGradient><linearGradient
       xlink:href="#a-36"
       id="X"
       x1="28"
       x2="40"
       y1="220"
       y2="220"
       gradientTransform="translate(186,-272)"
       gradientUnits="userSpaceOnUse" /><linearGradient
       xlink:href="#a-36"
       id="Y"
       x1="28"
       x2="40"
       y1="220"
       y2="220"
       gradientTransform="translate(186,-290)"
       gradientUnits="userSpaceOnUse" /><linearGradient
       xlink:href="#b-35"
       id="S"
       x1="116.205"
       x2="600.205"
       y1="238"
       y2="-316.08"
       gradientUnits="userSpaceOnUse" /><linearGradient
       id="b-35"><stop
         offset="0"
         style="stop-color:#b2d1e9;stop-opacity:1"
         id="stop3-6" /><stop
         offset=".136"
         style="stop-color:#c0c6cd;stop-opacity:1"
         id="stop4-2" /><stop
         offset=".453"
         style="stop-color:#d2dee8;stop-opacity:1"
         id="stop5-9" /><stop
         offset=".72"
         style="stop-color:#bfc5ce;stop-opacity:1"
         id="stop6-1" /><stop
         offset=".937"
         style="stop-color:#dbe2e8;stop-opacity:1"
         id="stop7-2" /><stop
         offset="1"
         style="stop-color:#e4e6e8;stop-opacity:1"
         id="stop8-7" /></linearGradient><linearGradient
       xlink:href="#c-0"
       id="T"
       x1="99.846"
       x2="431.139"
       y1="91.301"
       y2="91.301"
       gradientTransform="translate(-246.017,-371.377)"
       gradientUnits="userSpaceOnUse" /><linearGradient
       id="c-0"><stop
         offset="0"
         style="stop-color:#f6d32d;stop-opacity:1"
         id="stop9-9" /><stop
         offset="1"
         style="stop-color:#f9f06b;stop-opacity:1"
         id="stop10-3" /></linearGradient><linearGradient
       id="d-6"><stop
         offset="0"
         style="stop-color:#c4a000;stop-opacity:1"
         id="stop11-0" /><stop
         offset="1"
         style="stop-color:#edd400;stop-opacity:0"
         id="stop12-6" /></linearGradient><linearGradient
       id="e-2"><stop
         offset="0"
         style="stop-color:#fff;stop-opacity:1"
         id="stop13-6" /><stop
         offset="1"
         style="stop-color:#c4c5c3;stop-opacity:1"
         id="stop14-1" /></linearGradient><linearGradient
       xlink:href="#f-8"
       id="R"
       x1="1660.857"
       x2="1662.99"
       y1="806.297"
       y2="812.882"
       gradientTransform="matrix(1.8294,-0.816,0.816,1.8294,-3637.962,92.03)"
       gradientUnits="userSpaceOnUse" /><linearGradient
       id="f-8"><stop
         offset="0"
         style="stop-color:#9a9996;stop-opacity:1"
         id="stop15" /><stop
         offset="1"
         style="stop-color:#77767b;stop-opacity:1"
         id="stop16" /></linearGradient><linearGradient
       xlink:href="#g-7"
       id="K"
       x1="28"
       x2="116"
       y1="-276"
       y2="-276"
       gradientTransform="matrix(0.375,0,0,0.375,-242,-65.75)"
       gradientUnits="userSpaceOnUse" /><linearGradient
       id="g-7"><stop
         offset="0"
         style="stop-color:#c0bfbc;stop-opacity:1"
         id="stop17" /><stop
         offset=".045"
         style="stop-color:#fff;stop-opacity:1"
         id="stop18" /><stop
         offset=".091"
         style="stop-color:#deddda;stop-opacity:1"
         id="stop19" /><stop
         offset=".909"
         style="stop-color:#deddda;stop-opacity:1"
         id="stop20" /><stop
         offset=".955"
         style="stop-color:#fff;stop-opacity:1"
         id="stop21" /><stop
         offset="1"
         style="stop-color:#c0bfbc;stop-opacity:1"
         id="stop22" /></linearGradient><linearGradient
       xlink:href="#h-9"
       id="M"
       x1="344"
       x2="340"
       y1="76"
       y2="72"
       gradientTransform="matrix(0.25,0,0,0.25,180,83)"
       gradientUnits="userSpaceOnUse" /><linearGradient
       id="h-9"><stop
         offset="0"
         style="stop-color:#d5d3cf;stop-opacity:1"
         id="stop23" /><stop
         offset="1"
         style="stop-color:#fff;stop-opacity:1"
         id="stop24" /></linearGradient><linearGradient
       xlink:href="#i-2"
       id="O"
       x1="-253.63"
       x2="-230.06"
       y1="-56.518"
       y2="-56.518"
       gradientUnits="userSpaceOnUse" /><linearGradient
       id="i-2"><stop
         offset="0"
         style="stop-color:#fc9a91;stop-opacity:1"
         id="stop25" /><stop
         offset="1"
         style="stop-color:#cb2b31;stop-opacity:1"
         id="stop26" /></linearGradient><linearGradient
       xlink:href="#j-0"
       id="P"
       x1="181.677"
       x2="143.246"
       y1="-139.479"
       y2="-101.048"
       gradientTransform="matrix(0.10688,-0.41353,0.41353,-0.10688,113.054,313.604)"
       gradientUnits="userSpaceOnUse" /><linearGradient
       id="j-0"><stop
         offset="0"
         style="stop-color:#d0bb8e;stop-opacity:1"
         id="stop27" /><stop
         offset="1"
         style="stop-color:#fff;stop-opacity:1"
         id="stop28" /></linearGradient><linearGradient
       xlink:href="#k-2"
       id="Q"
       x1="-230.06"
       x2="-253.63"
       y1="-64.518"
       y2="-64.518"
       gradientTransform="translate(0,22.627)"
       gradientUnits="userSpaceOnUse" /><linearGradient
       id="k-2"><stop
         offset="0"
         style="stop-color:#c0bfbc;stop-opacity:1"
         id="stop29" /><stop
         offset=".223"
         style="stop-color:#9a9996;stop-opacity:1"
         id="stop30" /><stop
         offset=".744"
         style="stop-color:#d6d5d2;stop-opacity:1"
         id="stop31" /><stop
         offset="1"
         style="stop-color:#f6f5f4;stop-opacity:1"
         id="stop32" /></linearGradient><linearGradient
       xlink:href="#l-3"
       id="I"
       x1="320.5"
       x2="415.5"
       y1="-68"
       y2="-68"
       gradientTransform="matrix(0.25263,0,0,0.25263,115.032,109.18)"
       gradientUnits="userSpaceOnUse" /><linearGradient
       id="l-3"><stop
         offset="0"
         style="stop-color:#a51d2d;stop-opacity:1"
         id="stop33" /><stop
         offset="1"
         style="stop-color:#ce1921;stop-opacity:1"
         id="stop34" /></linearGradient><linearGradient
       xlink:href="#m-7"
       id="J"
       x1="336"
       x2="336"
       y1="62"
       y2="-180"
       gradientTransform="matrix(0.25,0,0,0.25,8,225)"
       gradientUnits="userSpaceOnUse" /><linearGradient
       id="m-7"><stop
         offset="0"
         style="stop-color:#d81d25;stop-opacity:1"
         id="stop35" /><stop
         offset="1"
         style="stop-color:#f66151;stop-opacity:1"
         id="stop36" /></linearGradient><linearGradient
       id="n-5"><stop
         offset="0"
         style="stop-color:#3d3846;stop-opacity:1"
         id="stop37" /><stop
         offset=".029"
         style="stop-color:#5e556b;stop-opacity:1"
         id="stop38" /><stop
         offset=".055"
         style="stop-color:#3d3846;stop-opacity:1"
         id="stop39" /><stop
         offset=".954"
         style="stop-color:#2a2731;stop-opacity:1"
         id="stop40" /><stop
         offset=".976"
         style="stop-color:#575064;stop-opacity:1"
         id="stop41" /><stop
         offset="1"
         style="stop-color:#3d3846;stop-opacity:1"
         id="stop42" /></linearGradient><linearGradient
       id="o-9"><stop
         offset="0"
         style="stop-color:#fff;stop-opacity:1"
         id="stop43-2" /><stop
         offset="1"
         style="stop-color:#fff;stop-opacity:0"
         id="stop44-2" /></linearGradient><linearGradient
       id="p-8"><stop
         offset="0"
         style="stop-color:#99c1f1;stop-opacity:1"
         id="stop45" /><stop
         offset="1"
         style="stop-color:#1c71d8;stop-opacity:.00394669"
         id="stop46" /></linearGradient><linearGradient
       id="q-9"><stop
         offset="0"
         style="stop-color:#9141ac;stop-opacity:1"
         id="stop47-7" /><stop
         offset=".266"
         style="stop-color:#4e98e7;stop-opacity:.84661794"
         id="stop48-3" /><stop
         offset=".486"
         style="stop-color:#67d5ea;stop-opacity:.65414792"
         id="stop49" /><stop
         offset="1"
         style="stop-color:#99d6f1;stop-opacity:0"
         id="stop50" /></linearGradient><linearGradient
       id="r-6"><stop
         offset="0"
         style="stop-color:#f9f06b;stop-opacity:1"
         id="stop51" /><stop
         offset=".459"
         style="stop-color:#33d17a;stop-opacity:.86729813"
         id="stop52" /><stop
         offset=".675"
         style="stop-color:#4dc6e7;stop-opacity:.70543128"
         id="stop53" /><stop
         offset="1"
         style="stop-color:#65d6ea;stop-opacity:.00392157"
         id="stop54" /></linearGradient><linearGradient
       id="s-1"><stop
         offset="0"
         style="stop-color:#ed333b;stop-opacity:1"
         id="stop55" /><stop
         offset=".45"
         style="stop-color:#f6d32d;stop-opacity:.87138313"
         id="stop56" /><stop
         offset=".78"
         style="stop-color:#8ff0a4;stop-opacity:.41141579"
         id="stop57" /><stop
         offset="1"
         style="stop-color:#8ff0a4;stop-opacity:0"
         id="stop58" /></linearGradient><linearGradient
       xlink:href="#n-5"
       id="A-2"
       x1="101.865"
       x2="136.26"
       y1="122.481"
       y2="122.481"
       gradientTransform="matrix(1.5959714,0,0,1.5959714,-15.488385,-129.5444)"
       gradientUnits="userSpaceOnUse" /><linearGradient
       id="t-9"><stop
         offset="0"
         style="stop-color:#000;stop-opacity:.94710135"
         id="stop59" /><stop
         offset="1"
         style="stop-color:#000;stop-opacity:.15186003"
         id="stop60" /></linearGradient><linearGradient
       id="u-3"><stop
         offset="0"
         style="stop-color:#d3d3d3;stop-opacity:1"
         id="stop61" /><stop
         offset="1"
         style="stop-color:#fff;stop-opacity:1"
         id="stop62" /></linearGradient><linearGradient
       xlink:href="#v-1"
       id="ab"
       x1="-78.549"
       x2="-66.468"
       y1="135.575"
       y2="126.69"
       gradientTransform="matrix(2.05668,0,0,2.05668,512.085,257.708)"
       gradientUnits="userSpaceOnUse" /><linearGradient
       id="v-1"><stop
         offset="0"
         style="stop-color:#dbdbdb;stop-opacity:1"
         id="stop63" /><stop
         offset="1"
         style="stop-color:#fff;stop-opacity:1"
         id="stop64" /></linearGradient><linearGradient
       xlink:href="#v-1"
       id="ac"
       x1="-92.632"
       x2="-74.658"
       y1="132.307"
       y2="135.619"
       gradientTransform="matrix(1.86319,0,0,1.86319,491.8,294.718)"
       gradientUnits="userSpaceOnUse" /><radialGradient
       xlink:href="#d-6"
       id="U"
       cx="280"
       cy="16.275"
       r="160"
       fx="280"
       fy="16.275"
       gradientTransform="matrix(1 0 0 1.1759 0 -118.638)"
       gradientUnits="userSpaceOnUse" /><radialGradient
       xlink:href="#e-2"
       id="V"
       cx="273.943"
       cy="67.198"
       r="56"
       fx="273.943"
       fy="67.198"
       gradientTransform="matrix(1,0,0,1.00007,0,-0.007)"
       gradientUnits="userSpaceOnUse" /><radialGradient
       xlink:href="#o-9"
       id="G"
       cx="247.734"
       cy="167.441"
       r="57.233"
       fx="247.734"
       fy="167.441"
       gradientTransform="matrix(-2.4560407,-1.0761029,-2.6094134,6.0009969,1105.7317,-1038.2222)"
       gradientUnits="userSpaceOnUse" /><radialGradient
       xlink:href="#p-8"
       id="F"
       cx="294.088"
       cy="155.782"
       r="14.686"
       fx="294.088"
       fy="155.782"
       gradientTransform="matrix(4.6276731,-0.23584159,0.28701619,8.4780895,-1430.858,-1595.587)"
       gradientUnits="userSpaceOnUse" /><radialGradient
       xlink:href="#o-9"
       id="E-9"
       cx="247.734"
       cy="167.441"
       r="57.233"
       fx="247.734"
       fy="167.441"
       gradientTransform="matrix(-1.4618021,1.5770017,3.8385487,3.5581466,-366.27134,-1270.8512)"
       gradientUnits="userSpaceOnUse" /><radialGradient
       xlink:href="#o-9"
       id="C-4"
       cx="247.734"
       cy="167.441"
       r="57.233"
       fx="247.734"
       fy="167.441"
       gradientTransform="matrix(-2.0544675,0.63484475,1.545216,5.000711,234.72409,-1302.6142)"
       gradientUnits="userSpaceOnUse" /><radialGradient
       xlink:href="#o-9"
       id="B-7"
       cx="234.336"
       cy="170.045"
       r="57.233"
       fx="234.336"
       fy="170.045"
       gradientTransform="matrix(2.1502782,0,0,5.2340204,-569.00062,-1177.3725)"
       gradientUnits="userSpaceOnUse" /><radialGradient
       xlink:href="#q-9"
       id="z-8"
       cx="231.173"
       cy="171.146"
       r="149.065"
       fx="231.173"
       fy="171.146"
       gradientTransform="matrix(1.5307026,0,0,2.0341337,-428.09283,-582.927)"
       gradientUnits="userSpaceOnUse" /><radialGradient
       xlink:href="#r-6"
       id="y-4"
       cx="243.967"
       cy="174.783"
       r="149.065"
       fx="243.967"
       fy="174.783"
       gradientTransform="matrix(0,-1.7919804,-1.7057697,0,344.33374,208.68816)"
       gradientUnits="userSpaceOnUse" /><radialGradient
       xlink:href="#s-1"
       id="x-5"
       cx="280.333"
       cy="196.053"
       r="149.065"
       fx="280.333"
       fy="196.053"
       gradientTransform="matrix(2.2202369,0,0,1.3368514,-626.57016,-513.66365)"
       gradientUnits="userSpaceOnUse" /><radialGradient
       xlink:href="#t-9"
       id="Z"
       cx="306.787"
       cy="248.476"
       r="35.966"
       fx="306.787"
       fy="248.476"
       gradientTransform="matrix(2.34892,0,0,1.15443,-511.714,288.668)"
       gradientUnits="userSpaceOnUse" /><radialGradient
       xlink:href="#u-3"
       id="aa"
       cx="-70.314"
       cy="100.52"
       r="47.499"
       fx="-70.314"
       fy="100.52"
       gradientTransform="matrix(0.83035,0.73224,-1.04719,1.1875,495.735,454.28)"
       gradientUnits="userSpaceOnUse" /><clipPath
       id="L"
       clipPathUnits="userSpaceOnUse"><path
         d="m252 116 28-28v-8h-36v36z"
         style="fill:#e74747;stroke:none;stroke-width:.25px;stroke-linecap:butt;stroke-linejoin:miter;stroke-opacity:1"
         id="path64" /></clipPath><clipPath
       id="H"
       clipPathUnits="userSpaceOnUse"><path
         d="M64-148h64l64-64 64 64h192c17.728 0 32 14.272 32 32v288c0 17.728-14.272 32-32 32H256l-64-64-64 64H64c-17.728 0-32-14.272-32-32v-288c0-17.728 14.409-34.199 32-32z"
         style="display:inline;opacity:1;vector-effect:none;fill:none;fill-opacity:1;stroke:#000;stroke-width:4;stroke-linecap:round;stroke-linejoin:round;stroke-miterlimit:4;stroke-dasharray:none;stroke-dashoffset:0;stroke-opacity:1;marker:none;marker-start:none;marker-mid:none;marker-end:none;paint-order:normal;enable-background:new"
         id="path65" /></clipPath><filter
       id="w-0"
       width="1.0786667"
       height="1.1231304"
       x="-0.039333334"
       y="-0.061565218"
       style="color-interpolation-filters:sRGB"><feGaussianBlur
         stdDeviation="2.95"
         id="feGaussianBlur65" /></filter><filter
       id="D-3"
       width="1.1053137"
       height="1.088136"
       x="-0.052656865"
       y="-0.044067978"
       style="color-interpolation-filters:sRGB"><feGaussianBlur
         stdDeviation=".685"
         id="feGaussianBlur66" /></filter><clipPath
       clipPathUnits="userSpaceOnUse"
       id="clipPath56"><path
         d="m 373.20271,541.12927 c 0,-90.93987 -73.72448,-164.66437 -164.66436,-164.66437 -90.93986,0 -164.66435,73.7245 -164.66435,164.66437 0,90.93986 73.72449,164.66435 164.66435,164.66435 90.93988,0 164.66436,-73.72449 164.66436,-164.66435 z m 0,0"
         fill="url(#x)"
         id="path56"
         style="opacity:0.8;fill:url(#radialGradient56);stroke-width:4.10379" /></clipPath><radialGradient
       inkscape:collect="always"
       xlink:href="#linearGradient48"
       id="radialGradient56"
       gradientTransform="matrix(8.1200352,0,0,-8.1200352,-2389.4404,443.00367)"
       cx="331.187"
       cy="2.223"
       r="50" /><radialGradient
       id="x-6"
       cx="331.18701"
       cy="2.223"
       gradientTransform="matrix(2.8390281,0,0,-2.8390281,-842.53865,23.264116)"
       r="50"
       xlink:href="#linearGradient48" /></defs><sodipodi:namedview
     id="namedview42"
     pagecolor="#ffffff"
     bordercolor="#000000"
     borderopacity="0.25"
     inkscape:showpageshadow="2"
     inkscape:pageopacity="0.0"
     inkscape:pagecheckerboard="0"
     inkscape:deskcolor="#d1d1d1"
     inkscape:zoom="4.4083688"
     inkscape:cx="75.878407"
     inkscape:cy="71.11474"
     inkscape:window-width="1920"
     inkscape:window-height="1003"
     inkscape:window-x="0"
     inkscape:window-y="0"
     inkscape:window-maximized="1"
     inkscape:current-layer="svg42" /><linearGradient
     id="a"
     gradientUnits="userSpaceOnUse"><stop
       offset="0"
       stop-color="#424048"
       id="stop1" /><stop
       offset="1"
       id="stop2" /></linearGradient><radialGradient
     id="i"
     cx="256"
     cy="-174.134"
     gradientTransform="matrix(.56173 0 0 -.56173 -79.802 13.177)"
     r="144"
     xlink:href="#a" /><linearGradient
     id="b"
     gradientUnits="userSpaceOnUse"><stop
       offset="0"
       stop-color="#5e5c64"
       id="stop3" /><stop
       offset="1"
       stop-color="#9a9996"
       id="stop4" /></linearGradient><linearGradient
     id="j"
     x1="367.573"
     x2="461.369"
     xlink:href="#b"
     y1="1296.628"
     y2="1296.628" /><linearGradient
     id="c"
     gradientUnits="userSpaceOnUse"><stop
       offset="0"
       stop-color="#c061cb"
       id="stop5" /><stop
       offset="1"
       stop-color="#ed333b"
       id="stop6" /></linearGradient><radialGradient
     id="k"
     cx="310.767"
     cy="-1.734"
     gradientTransform="matrix(1.62731 0 0 -1.62731 -456.654 44.335)"
     r="50"
     xlink:href="#c" /><linearGradient
     id="d"
     gradientUnits="userSpaceOnUse"><stop
       offset="0"
       stop-color="#1c71d8"
       id="stop7" /><stop
       offset="1"
       stop-color="#c061cb"
       stop-opacity="0"
       id="stop8" /></linearGradient><radialGradient
     id="l"
     cx="331.187"
     cy="2.223"
     gradientTransform="matrix(1.62731 0 0 -1.62731 -456.654 44.335)"
     r="50"
     xlink:href="#d" /><filter
     id="e"
     height="1"
     width="1"
     x="0"
     y="0"><feColorMatrix
       in="SourceGraphic"
       values="0 0 0 0 1 0 0 0 0 1 0 0 0 0 1 0 0 0 1 0"
       id="feColorMatrix8" /></filter><mask
     id="n"><g
       filter="url(#e)"
       id="g8"><path
         fill-opacity=".716"
         d="M0 0h128v128H0z"
         id="path8" /></g></mask><linearGradient
     id="f"
     gradientUnits="userSpaceOnUse"><stop
       offset="0"
       stop-color="#99c1f1"
       id="stop9" /><stop
       offset="1"
       stop-color="#3584e4"
       stop-opacity="0"
       id="stop10" /></linearGradient><linearGradient
     id="o"
     gradientTransform="matrix(0 .8025 .8025 0 -165.54 102.798)"
     x1="-58.316"
     x2="34.192"
     xlink:href="#f"
     y1="296"
     y2="296" /><clipPath
     id="m"><path
       d="M0 0h192v152H0z"
       id="path10" /></clipPath><linearGradient
     id="g"
     gradientUnits="userSpaceOnUse"><stop
       offset="0"
       stop-color="#1c71d8"
       id="stop11" /><stop
       offset="1"
       stop-color="#c061cb"
       id="stop12" /></linearGradient><linearGradient
     id="p"
     gradientTransform="matrix(0,-0.66414,0.66414,0,90.867,226.3491)"
     x1="266.209"
     x2="318.586"
     xlink:href="#g"
     y1="-28.409"
     y2="-28.409" /><mask
     id="r"><g
       filter="url(#e)"
       id="g12"><path
         fill-opacity=".664"
         d="M0 0h128v128H0z"
         id="path12" /></g></mask><linearGradient
     id="h"
     gradientUnits="userSpaceOnUse"><stop
       offset="0"
       stop-color="#fff"
       id="stop13" /><stop
       offset="1"
       stop-color="#fff"
       stop-opacity="0"
       id="stop14" /></linearGradient><linearGradient
     id="s"
     gradientTransform="matrix(.66 0 0 -.66 -139.2 91.88)"
     x1="320"
     x2="320"
     xlink:href="#h"
     y1="93"
     y2="13" /><clipPath
     id="q"><path
       d="M0 0h192v152H0z"
       id="path14" /></clipPath><linearGradient
     id="t"
     x1="374.711"
     x2="454.233"
     xlink:href="#b"
     y1="1296.628"
     y2="1296.628" /><radialGradient
     id="u"
     cx="256"
     cy="-174.134"
     gradientTransform="matrix(.58333 0 0 -.58333 -85.333 11.222)"
     r="144"
     xlink:href="#a" /><linearGradient
     id="v"
     x1="367.701"
     x2="461.242"
     xlink:href="#b"
     y1="1296.628"
     y2="1296.628" /><radialGradient
     id="w"
     cx="310.767"
     cy="-1.734"
     gradientTransform="matrix(2.8390281,0,0,-2.8390281,-842.53865,23.264113)"
     r="50"
     xlink:href="#linearGradient44" /><radialGradient
     id="x"
     cx="331.187"
     cy="2.223"
     gradientTransform="matrix(2.4730549,0,0,-2.4730549,-727.24585,30.515294)"
     r="50"
     xlink:href="#linearGradient48" /><mask
     id="z"><g
       filter="url(#e)"
       id="g15"><path
         fill-opacity=".716"
         d="M0 0h128v128H0z"
         id="path15" /></g></mask><linearGradient
     id="A"
     gradientTransform="matrix(0 .93625 .93625 0 -205.13 106.598)"
     x1="-58.316"
     x2="34.192"
     xlink:href="#f"
     y1="296"
     y2="296" /><clipPath
     id="y"><path
       d="M0 0h192v152H0z"
       id="path16" /></clipPath><linearGradient
     id="B"
     gradientTransform="matrix(0,-0.8025,0.8025,0,40.925,266.3796)"
     x1="266.209"
     x2="318.586"
     xlink:href="#g"
     y1="-28.409"
     y2="-28.409" /><mask
     id="D"><g
       filter="url(#e)"
       id="g17"><path
         fill-opacity=".664"
         d="M0 0h128v128H0z"
         id="path17" /></g></mask><linearGradient
     id="E"
     gradientTransform="matrix(0.8025,0,0,-0.8025,-184.8,94.445)"
     x1="320"
     x2="320"
     xlink:href="#h"
     y1="93"
     y2="13" /><clipPath
     id="C"><path
       d="M0 0h192v152H0z"
       id="path18" /></clipPath><g
     id="g47"
     transform="matrix(1.2298324,0,0,1.376496,-24.611271,-45.854464)"><g
       id="g48"
       transform="matrix(0.98891939,0,0,1,0.81466373,0)"><path
         d="m 43.834087,112.65864 c -0.769531,0.20703 -1.425781,0.71094 -1.824219,1.39844 -0.824219,1.43359 -0.332031,3.26953 1.101563,4.09765 18.8125,10.86328 42.007812,10.86328 60.820309,0 1.4336,-0.82812 1.92579,-2.66406 1.10157,-4.09765 -0.83203,-1.4375 -2.66797,-1.92578 -4.10157,-1.09766 -16.964841,9.79688 -37.855465,9.79688 -54.820309,0 -0.6875,-0.39844 -1.507813,-0.50781 -2.277344,-0.30078 z m 0,0"
         fill="url(#a)"
         id="path11"
         style="fill:url(#a-3)" /><path
         d="m 104.25173,113.69992 c -19.016894,10.8326 -42.443392,10.8326 -61.460294,0"
         fill="#241f31"
         fill-opacity="0.537255"
         id="path12-1"
         style="stroke-width:1.05587" /><path
         d="m 44.630875,107.26799 c -0.748877,0.20703 -1.387514,0.71094 -1.775258,1.39844 -0.802098,1.43359 -0.32312,3.26953 1.071998,4.09766 18.307588,10.86328 40.880356,10.86328 59.187945,0 1.39512,-0.82813 1.8741,-2.66407 1.072,-4.09766 -0.8059,-1.4375 -2.59257,-1.92969 -3.99149,-1.09766 -16.509515,9.79297 -36.839451,9.79297 -53.348973,0 -0.669048,-0.39843 -1.467344,-0.50781 -2.216222,-0.30078 z m 0,0"
         fill="url(#b)"
         id="path13"
         style="fill:url(#b-3);stroke-width:0.986489" /><path
         style="opacity:1;fill:#36323b;fill-opacity:1;stroke:none;stroke-width:1.7745;stroke-dasharray:none;stroke-opacity:1"
         d="m 43.834087,112.65864 1.772346,1.06473 -2.814997,-0.0234 -0.38031,-0.1845 0.417793,-0.3724 0.350825,-0.22299 0.300081,-0.14206 z"
         id="path48" /></g></g><path
     d="M 123.37113,57.572007 C 123.37113,25.776476 97.594659,0 65.799127,0 34.003596,0 8.2271216,25.776476 8.2271216,57.572007 c 0,31.795533 25.7764744,57.572013 57.5720054,57.572013 31.795532,0 57.572003,-25.77648 57.572003,-57.572013 z m 0,0"
     fill="url(#w)"
     id="path35"
     style="fill:url(#w);stroke-width:1.43482" /><path
     d="m 25.633375,33.786763 c 0.837102,4.679259 5.312545,7.795178 9.990393,6.958328 4.677846,-0.836849 7.795178,-5.312543 6.958328,-9.99039 -0.836849,-4.677848 -5.312544,-7.795178 -9.990392,-6.958329 -4.677845,0.83685 -7.795178,5.312544 -6.958329,9.990391 z m 0,0"
     fill="#ffffff"
     fill-opacity="0.545"
     id="path40"
     style="fill:#ffffff;fill-opacity:0.431655;stroke-width:1.43482" /><path
     d="m 19.137554,51.498872 c 0.558407,3.12139 3.538874,5.197291 6.660262,4.638886 3.121391,-0.558404 5.197291,-3.538871 4.638886,-6.660261 -0.558406,-3.121391 -3.538873,-5.197293 -6.660262,-4.63889 -3.121389,0.558408 -5.19729,3.538875 -4.638886,6.660265 z m 0,0"
     fill="#ffffff"
     fill-opacity="0.606"
     id="path41"
     style="fill:#ffffff;fill-opacity:0.431655;stroke-width:1.43482" /><path
     d="M 123.37113,57.57201 C 123.37113,25.776479 97.594662,0 65.799127,0 34.003603,0 8.2271206,25.776479 8.2271206,57.57201 c 0,31.79553 25.7764704,57.57201 57.5720064,57.57201 31.795535,0 57.572003,-25.77648 57.572003,-57.57201 z m 0,0"
     fill="url(#x)"
     id="path36"
     style="opacity:0.8;fill:url(#x-6);stroke-width:1.43482" /><g
     id="g3"
     transform="matrix(1.1479842,0,0,1.1479842,-119.68664,-4.0157866)"
     style="opacity:0.5"><rect
       width="34.821541"
       height="29.558983"
       x="144.1295"
       y="53.232628"
       rx="9.2901497"
       ry="7.2851372"
       style="opacity:1;fill:#241f31;fill-opacity:1;stroke:none;stroke-width:4.78791;stroke-linecap:round;stroke-linejoin:round;stroke-miterlimit:2"
       id="rect71" /><rect
       width="29.150673"
       height="27.171818"
       x="147.08524"
       y="52.386753"
       rx="5.911478"
       ry="5.911478"
       style="opacity:1;fill:url(#A-2);stroke:none;stroke-width:4.78791;stroke-linecap:round;stroke-linejoin:round;stroke-miterlimit:2"
       id="rect72" /><rect
       width="29.030365"
       height="27.091618"
       x="147.08524"
       y="49.431019"
       rx="5.911478"
       ry="5.911478"
       style="opacity:1;fill:#77767b;fill-opacity:1;stroke:none;stroke-width:4.78791;stroke-linecap:round;stroke-linejoin:round;stroke-miterlimit:2"
       id="rect73" /><rect
       width="29.070473"
       height="27.091618"
       x="147.08524"
       y="48.58675"
       rx="5.911478"
       ry="5.911478"
       style="opacity:1;fill:#5e5c64;fill-opacity:1;stroke:none;stroke-width:4.78791;stroke-linecap:round;stroke-linejoin:round;stroke-miterlimit:2"
       id="rect74" /><g
       transform="matrix(1.5959714,0,0,1.5959714,-12.872666,-133.30372)"
       id="g78"
       style="opacity:1"><rect
         width="3.832"
         height="2.99"
         x="105.24"
         y="119.189"
         rx="2.2679999"
         ry="2.2679999"
         style="fill:#3d3846;fill-opacity:1;stroke:none;stroke-width:1.22889;stop-color:#000000"
         id="rect75" /><rect
         width="3.832"
         height="2.99"
         x="109.595"
         y="119.189"
         rx="2.2679999"
         ry="2.2679999"
         style="fill:#3d3846;fill-opacity:1;stroke:none;stroke-width:1.22889;stop-color:#000000"
         id="rect76" /><rect
         width="3.832"
         height="2.99"
         x="105.24"
         y="122.733"
         rx="2.2679999"
         ry="2.2679999"
         style="fill:#3d3846;fill-opacity:1;stroke:none;stroke-width:1.22889;stop-color:#000000"
         id="rect77" /><rect
         width="3.832"
         height="2.99"
         x="109.595"
         y="122.733"
         rx="2.2679999"
         ry="2.2679999"
         style="fill:#3d3846;fill-opacity:1;stroke:none;stroke-width:1.22889;stop-color:#000000"
         id="rect78" /></g></g><g
     id="g56"
     transform="matrix(1.1479842,0,0,1.1479842,-7.6718641,-11.766961)"
     style="opacity:0.7"><g
       transform="matrix(0.30456209,0,0,0.30456209,0.487124,-104.40683)"
       id="g156"
       style="opacity:1"
       clip-path="url(#clipPath56)"><path
         d="m 212.581,560.477 h -12.208 c -7.43651,0 -13.465,6.02849 -13.465,13.465 3.34703,10.24631 14.41222,15.79193 24.624,12.341 l 45.1434,-0.487 -0.26333,-35.3 z"
         style="opacity:1;fill:url(#Z);fill-opacity:0.286751;stroke-width:1.06667;-inkscape-stroke:none;paint-order:stroke fill markers"
         id="path146"
         sodipodi:nodetypes="csccccc" /><g
         id="g71"><path
           d="m 293.143,568.788 80.336,-49.613"
           style="font-variation-settings:normal;fill:none;fill-opacity:1;stroke:#57e389;stroke-width:6;stroke-linecap:round;stroke-linejoin:miter;stroke-miterlimit:4;stroke-dasharray:none;stroke-dashoffset:0;stroke-opacity:1;stop-color:#000000"
           id="path145" /><circle
           cx="239.067"
           cy="517.64899"
           r="4.1030002"
           style="fill:#ffffff;fill-opacity:0.226961;stroke:none;stroke-width:1.99999;stroke-opacity:1;stop-color:#000000"
           id="circle145" /><path
           d="m 254.087,482.76 91.013,84.005 41.96,-48.9 a 44.397,44.397 0 0 0 -2.504,-60.507 l -29.985,-29.597 a 39.548,39.548 0 0 0 -58.497,3.232 z"
           style="fill:url(#aa);fill-opacity:1;stroke:none;stroke-width:40;stroke-linecap:round;stroke-dasharray:none;paint-order:stroke fill markers"
           id="path147" /><path
           d="m 329.85,549.04 15.126,8.376 a 27.218,27.218 0 0 0 35.996,-8.96 l 13.004,-19.974 a 14.607,14.607 0 0 0 -3.887,-19.95 14.637,14.637 0 0 0 -18.975,6.364 l -11.402,14.271 -38.575,-33.616 -26.017,25.305 z"
           style="font-variation-settings:normal;opacity:1;vector-effect:none;fill:url(#ab);fill-opacity:1;stroke:none;stroke-width:49.2777;stroke-linecap:round;stroke-linejoin:miter;stroke-miterlimit:4;stroke-dasharray:none;stroke-dashoffset:0;stroke-opacity:1;-inkscape-stroke:none;paint-order:stroke fill markers;stop-color:#000000;stop-opacity:1"
           id="path148" /><path
           d="m 301.845,515.898 -6.727,6.541 34.732,28.186 15.125,8.375 a 27.218,27.218 0 0 0 35.994,-8.96 l 13.006,-19.974 a 14.606,14.606 0 0 0 1.069,-13.96 14.606,14.606 0 0 1 -1.069,1.96 l -13.006,19.975 A 27.218,27.218 0 0 1 344.975,547 l -15.125,-8.375 z"
           style="fill:#000000;fill-opacity:0.0572647;stroke:none;stroke-width:46.7755;stroke-linecap:round;stroke-dasharray:none;paint-order:stroke fill markers"
           id="path149" /><path
           d="m 315.97,422.718 a 20,20 0 0 0 -18.714,7.057 L 213.333,532.17 a 29.451,29.451 0 0 1 -16.523,10.11 l -1.588,0.346 c -10.334,3.899 -16.925,10.077 -13.027,20.411 3.312,8.787 11.237,13.013 19.54,14.229 6.768,0.992 17.407,-2.673 23.608,-5.636 a 68.826,68.826 0 0 0 23.037,-19.12 l 79.814,-97.377 c 7,-8.545 5.75,-21.145 -2.792,-28.147 a 20,20 0 0 0 -9.431,-4.268 z"
           style="color:#000000;fill:#ffffff;stroke-width:1.5124;stroke-linecap:round;-inkscape-stroke:none;paint-order:stroke fill markers"
           id="path150" /><path
           d="m 282.977,545.026 39.425,20.492 a 30.497,30.497 0 0 0 31.753,-2.22 l 3.581,-2.55 a 29.472,29.472 0 0 0 12.375,-24.147 l -0.061,-12.569 a 14.75,14.75 0 0 0 -17.669,-14.39 l -1.585,0.321 a 15.677,15.677 0 0 0 -12.577,15.561 l 0.116,9.292 a 4.826,4.826 0 0 1 -8.143,3.563 L 307.26,516.657 Z"
           style="fill:url(#ac);fill-opacity:1;stroke:none;stroke-width:49.2776;stroke-linecap:round;stroke-dasharray:none;paint-order:stroke fill markers"
           id="path151" /><path
           d="m 338.329,526.052 a 15.678,15.678 0 0 0 -0.11,1.055 l 0.004,0.338 a 4.825,4.825 0 0 0 0.11,-1.045 z m 31.74,3.776 a 29.473,29.473 0 0 1 -12.334,22.504 l -3.58,2.549 a 30.496,30.496 0 0 1 -31.756,2.22 l -33.5,-17.412 -5.924,6.922 39.424,20.49 a 30.496,30.496 0 0 0 31.756,-2.22 l 3.58,-2.55 a 29.473,29.473 0 0 0 12.375,-24.148 z"
           style="fill:#000000;fill-opacity:0.0572647;stroke:none;stroke-width:49.2777;stroke-linecap:round;stroke-dasharray:none;paint-order:stroke fill markers"
           id="path152" /><path
           d="m 276.922,481.792 -2.164,52.853 a 37.034,37.034 0 0 0 5.485,20.962 l 11.722,18.992 a 16.727,16.727 0 0 0 24.163,4.678 28.019,28.019 0 0 0 2.685,-42.362 l -2.806,-2.816 43.645,-84.882"
           style="fill:#ffffff;fill-opacity:1;stroke:none;stroke-width:40;stroke-linecap:round;stroke-dasharray:none;paint-order:stroke fill markers"
           id="path153" /><path
           d="m 248.379,538.511 a 68.827,68.827 0 0 1 -23.037,19.12 c -6.2,2.961 -16.84,6.627 -23.608,5.636 -7.675,-1.124 -15.02,-4.83 -18.705,-12.324 -2.152,3.232 -2.685,7.19 -0.836,12.093 3.314,8.788 11.239,13.015 19.541,14.23 6.768,0.992 17.408,-2.674 23.608,-5.636 a 68.826,68.826 0 0 0 23.037,-19.12 l 26.356,-32.085 0.08,-11.205 z"
           style="fill:#eeecea;fill-opacity:1;stroke:none;stroke-width:40.0001;stroke-linecap:round;stroke-dasharray:none;paint-order:stroke fill markers"
           id="path154" /><path
           d="m 316.147,512.326 c 0,0 54.302,-9.74 65.155,-27.597 8.626,-14.193 -23.92,-43.648 -23.92,-43.648 z"
           style="opacity:1;fill:#ffffff;fill-opacity:1;stroke-width:1.06667;-inkscape-stroke:none;paint-order:stroke fill markers"
           id="path155" /><path
           d="m 275.088,522.717 -0.52,12.681 a 37.034,37.034 0 0 0 5.487,20.963 l 11.718,18.993 c 5.246,8.502 16.437,11.062 24.858,5.687 7.992,-7.442 17.231,-27.433 4.208,-42.072 0,0 11.366,17.048 -3.07,32.662 -6.783,7.335 -19.612,2.815 -24.858,-5.688 l -13.59,-18.227 c -2.54,-4.176 -3.494,-20.168 -4.233,-25 z"
           style="fill:#eeecea;fill-opacity:1;stroke:none;stroke-width:40.0001;stroke-linecap:round;stroke-dasharray:none;paint-order:stroke fill markers"
           id="path156" /></g></g></g></svg>
